<svg viewBox="0 0 1440 900" xmlns="http://www.w3.org/2000/svg">
  <!-- Background -->
  <rect width="1440" height="900" fill="#0a0e27"/>

  <!-- TOP BAR -->
  <rect width="1440" height="45" fill="#5d9e32"/>
  <rect width="1440" height="45" fill="url(#gradientGreen)" opacity="0.3"/>
  <line x1="0" y1="45" x2="1440" y2="45" stroke="#2a4a12" stroke-width="3"/>

  <!-- TopBar Content -->
  <text x="20" y="30" font-family="monospace" font-size="16" font-weight="bold" fill="white">⛏ CRAFTGENT v0.2.0</text>
  <circle cx="400" cy="23" r="5" fill="#5aff5a"/>
  <text x="420" y="30" font-family="monospace" font-size="12" fill="white">ONLINE</text>
  <text x="1200" y="30" font-family="monospace" font-size="12" fill="white">👤 User ⚙️ ☀️ ✕</text>

  <!-- LEFT SIDEBAR -->
  <rect x="0" y="45" width="250" height="855" fill="rgba(0,0,0,0.72)" stroke="#444" stroke-width="2"/>

  <!-- Sidebar Title -->
  <text x="15" y="75" font-family="monospace" font-size="11" font-weight="bold" fill="#55ffff">▶ PARTY MEMBERS</text>

  <!-- Agent: NEXUS (Active) -->
  <rect x="10" y="90" width="230" height="70" fill="rgba(85, 255, 255, 0.1)" stroke="#5aff5a" stroke-width="2"/>
  <rect x="10" y="88" width="3" height="72" fill="#5d9e32"/>

  <text x="30" y="105" font-family="monospace" font-size="11" font-weight="bold" fill="#55ffff">NEXUS ◀</text>
  <text x="30" y="118" font-family="monospace" font-size="9" fill="#aaaaaa">Research Mage</text>
  <rect x="30" y="122" width="50" height="6" fill="#333" stroke="#1a1a1a" stroke-width="1"/>
  <rect x="30" y="122" width="45" height="6" fill="#5d9e32"/>
  <text x="85" y="127" font-family="monospace" font-size="8" fill="#aaaaaa">HP 90</text>

  <rect x="30" y="132" width="50" height="6" fill="#333" stroke="#1a1a1a" stroke-width="1"/>
  <rect x="30" y="132" width="37" height="6" fill="#3050c0"/>
  <text x="85" y="137" font-family="monospace" font-size="8" fill="#aaaaaa">MP 74</text>

  <!-- Agent: ALEX (Inactive) -->
  <rect x="10" y="170" width="230" height="70" fill="rgba(170, 255, 170, 0.05)" stroke="#666" stroke-width="1"/>
  <text x="30" y="185" font-family="monospace" font-size="11" font-weight="bold" fill="#aaffaa">○ ALEX</text>
  <text x="30" y="198" font-family="monospace" font-size="9" fill="#aaaaaa">Code Warrior</text>
  <rect x="30" y="202" width="50" height="6" fill="#333" stroke="#1a1a1a" stroke-width="1"/>
  <rect x="30" y="202" width="27" height="6" fill="#5d9e32"/>
  <text x="85" y="207" font-family="monospace" font-size="8" fill="#aaaaaa">HP 55</text>

  <!-- Agent: VORTEX (Inactive) -->
  <rect x="10" y="250" width="230" height="70" fill="rgba(204, 136, 255, 0.05)" stroke="#666" stroke-width="1"/>
  <text x="30" y="265" font-family="monospace" font-size="11" font-weight="bold" fill="#cc88ff">○ VORTEX</text>
  <text x="30" y="278" font-family="monospace" font-size="9" fill="#aaaaaa">Data Creeper</text>
  <rect x="30" y="282" width="50" height="6" fill="#333" stroke="#1a1a1a" stroke-width="1"/>
  <rect x="30" y="282" width="36" height="6" fill="#5d9e32"/>
  <text x="85" y="287" font-family="monospace" font-size="8" fill="#aaaaaa">HP 72</text>

  <!-- Agent: RESEARCHER (Inactive) -->
  <rect x="10" y="330" width="230" height="70" fill="rgba(212, 165, 116, 0.05)" stroke="#666" stroke-width="1"/>
  <text x="30" y="345" font-family="monospace" font-size="11" font-weight="bold" fill="#d4a574">○ RESEARCHER</text>
  <text x="30" y="358" font-family="monospace" font-size="9" fill="#aaaaaa">Chief Investigator</text>
  <rect x="30" y="362" width="50" height="6" fill="#333" stroke="#1a1a1a" stroke-width="1"/>
  <rect x="30" y="362" width="42" height="6" fill="#5d9e32"/>
  <text x="85" y="367" font-family="monospace" font-size="8" fill="#aaaaaa">HP 85</text>

  <!-- Abilities -->
  <text x="15" y="440" font-family="monospace" font-size="11" font-weight="bold" fill="#55ffff">▶ ABILITIES</text>
  <text x="25" y="460" font-family="monospace" font-size="9" fill="#5aff5a">⚡ WEB SEARCH</text>
  <text x="25" y="475" font-family="monospace" font-size="9" fill="#5aff5a">⚡ CODE EXEC</text>
  <text x="25" y="490" font-family="monospace" font-size="9" fill="#aaaaaa">○ VISION</text>

  <!-- Templates -->
  <text x="15" y="530" font-family="monospace" font-size="11" font-weight="bold" fill="#55ffff">▶ TEMPLATES</text>

  <!-- Sessions -->
  <text x="15" y="620" font-family="monospace" font-size="11" font-weight="bold" fill="#55ffff">▶ SESSIONS</text>

  <!-- CENTER AREA -->
  <!-- Session Tabs -->
  <rect x="250" y="45" width="1190" height="36" fill="rgba(0,0,0,0.5)" stroke="#444" stroke-width="1"/>
  <text x="265" y="67" font-family="monospace" font-size="10" fill="#aaaaaa">[Archaeology 101 ✕]</text>
  <text x="450" y="67" font-family="monospace" font-size="10" fill="#666">[Python Review ✕]</text>
  <text x="650" y="67" font-family="monospace" font-size="10" fill="#666">[Data Analysis ✕]</text>

  <!-- Chat Area -->
  <rect x="250" y="81" width="1190" height="730" fill="rgba(0,0,0,0.55)" stroke="#444" stroke-width="1"/>

  <!-- Message 1: NEXUS -->
  <rect x="270" y="100" width="1150" height="80" fill="rgba(85, 255, 255, 0.1)" stroke="#55ffff" stroke-width="1" rx="4"/>
  <text x="280" y="115" font-family="monospace" font-size="9" fill="#55ffff">🤖 NEXUS</text>
  <text x="280" y="135" font-family="monospace" font-size="10" fill="#ffffff">Here's your research on machine learning foundations...</text>
  <text x="280" y="150" font-family="monospace" font-size="10" fill="#ffffff">The field combines statistics, computer science, and mathematics...</text>
  <text x="280" y="165" font-family="monospace" font-size="9" fill="#aaaaaa">10:30 AM</text>

  <!-- Message 2: ALEX -->
  <rect x="270" y="190" width="1150" height="100" fill="rgba(170, 255, 170, 0.1)" stroke="#aaffaa" stroke-width="1" rx="4"/>
  <text x="280" y="205" font-family="monospace" font-size="9" fill="#aaffaa">⚡ ALEX</text>
  <text x="280" y="225" font-family="monospace" font-size="10" fill="#ffffff">```python</text>
  <text x="280" y="240" font-family="monospace" font-size="9" fill="#90ee90">def hello():</text>
  <text x="290" y="255" font-family="monospace" font-size="9" fill="#90ee90">    return "world"</text>
  <text x="280" y="270" font-family="monospace" font-size="10" fill="#ffffff">```</text>
  <text x="280" y="285" font-family="monospace" font-size="9" fill="#aaaaaa">10:32 AM</text>

  <!-- Message 3: Typing Indicator -->
  <rect x="270" y="300" width="1150" height="50" fill="rgba(0,0,0,0.3)" stroke="#666" stroke-width="1" rx="4"/>
  <text x="280" y="320" font-family="monospace" font-size="10" fill="#f5c842">▶ VORTEX is thinking...</text>
  <circle cx="320" cy="333" r="3" fill="#f5c842"/>
  <circle cx="330" cy="333" r="3" fill="#f5c842"/>
  <circle cx="340" cy="333" r="3" fill="#f5c842"/>

  <!-- Input Bar -->
  <rect x="250" y="811" width="1190" height="40" fill="rgba(0,0,0,0.72)" stroke="#444" stroke-width="2" stroke-top="3px solid black"/>
  <line x1="250" y1="811" x2="1440" y2="811" stroke="#1a1a1a" stroke-width="3"/>

  <!-- Status pill -->
  <circle cx="270" cy="831" r="4" fill="#5aff5a"/>
  <text x="280" y="835" font-family="monospace" font-size="9" fill="#5aff5a">ONLINE</text>

  <!-- File upload button -->
  <text x="330" y="835" font-family="monospace" font-size="12" fill="#aaaaaa">📎</text>

  <!-- Input -->
  <rect x="370" y="820" width="900" height="22" fill="transparent" stroke="none"/>
  <text x="380" y="835" font-family="monospace" font-size="11" fill="#aaaaaa">Type your message...</text>

  <!-- Send button -->
  <rect x="1300" y="819" width="130" height="24" fill="#5d9e32" stroke="#2a4a12" stroke-width="2" rx="2"/>
  <text x="1315" y="835" font-family="monospace" font-size="10" font-weight="bold" fill="white">SEND ▶</text>

  <!-- Gradients -->
  <defs>
    <linearGradient id="gradientGreen" x1="0%" y1="0%" x2="0%" y2="100%">
      <stop offset="0%" style="stop-color:#7acc40;stop-opacity:1" />
      <stop offset="100%" style="stop-color:#3e6b1f;stop-opacity:1" />
    </linearGradient>
  </defs>

  <!-- Legend -->
  <text x="260" y="890" font-family="monospace" font-size="8" fill="#666">Full UI Layout • Agents: NEXUS, ALEX, VORTEX, RESEARCHER • Session Tabs • Message Display • Input Bar</text>
</svg>
